<?xml version="1.0" encoding="UTF-8"?>
<svg xmlns="http://www.w3.org/2000/svg" xmlns:xlink="http://www.w3.org/1999/xlink" version="1.1" viewBox="0 0 200 200">
  <defs>
    <style>
      .cls-1 {
        fill: url(#linear-gradient);
      }

      .cls-2 {
        fill: #fff;
      }
    </style>
    <linearGradient id="linear-gradient" x1="66.37" y1="237.83" x2="133.3" y2="-36.5" gradientUnits="userSpaceOnUse">
      <stop offset="0" stop-color="#3d51a2"/>
      <stop offset=".35" stop-color="#3d51a2"/>
      <stop offset=".38" stop-color="#474d99"/>
      <stop offset=".43" stop-color="#634483"/>
      <stop offset=".5" stop-color="#90355e"/>
      <stop offset=".58" stop-color="#cf212c"/>
      <stop offset=".59" stop-color="#d81f26"/>
      <stop offset="1" stop-color="#da0000"/>
    </linearGradient>
  </defs>
  <!-- Generator: Adobe Illustrator 28.7.4, SVG Export Plug-In . SVG Version: 1.2.0 Build 166)  -->
  <g>
    <g id="Layer_1">
      <g>
        <rect class="cls-1" width="200" height="200"/>
        <g>
          <g>
            <polygon class="cls-2" points="156.65 79.49 156.65 58.65 142.77 58.65 142.77 79.49 123.47 79.49 123.47 93.37 142.77 93.37 142.77 114.21 156.65 114.21 156.65 93.37 175.95 93.37 175.95 79.49 156.65 79.49"/>
            <polygon class="cls-2" points="100.31 30.89 83.32 99.04 106.05 119.25 128.08 30.89 100.31 30.89"/>
            <polygon class="cls-2" points="24.05 114.16 49.47 114.16 49.5 114.16 74.92 114.16 78.27 100.74 36.63 63.72 24.05 114.16"/>
            <polygon class="cls-2" points="41.35 44.77 37.89 58.65 79.53 95.67 92.22 44.77 41.35 44.77"/>
          </g>
          <g>
            <path class="cls-2" d="M36.82,158.21c-4.71,0-8.15-2.84-8.15-6.99v-18.55h5.42v18.48c0,1.68.97,2.62,2.73,2.62s2.81-.94,2.81-2.62v-18.48h5.2v18.55c0,4.15-3.25,6.99-8,6.99Z"/>
            <path class="cls-2" d="M61.39,157.57l-5.5-9.99-2.13-4.08v14.06h-4.9v-24.91h4.45l5.35,10.21,2.02,4.08v-14.29h4.82v24.91h-4.11Z"/>
            <path class="cls-2" d="M69.58,157.57v-24.91h5.35v24.91h-5.35Z"/>
            <path class="cls-2" d="M88.92,157.57h-5.09l-6.4-24.91h5.5l3.63,16.94,3.63-16.94h5.24l-6.51,24.91Z"/>
            <path class="cls-2" d="M97.78,157.57v-24.91h5.35v24.91h-5.35Z"/>
            <path class="cls-2" d="M114.42,158.21c-4.9,0-8-2.81-8-7.07v-1.27h4.9v.82c0,2.09,1.05,3.22,2.99,3.22s2.84-1.08,2.84-2.81-1.42-2.88-4.3-4.38c-2.99-1.61-6.17-3.59-6.17-7.41s2.73-7.26,7.82-7.26c4.56,0,7.59,3.07,7.59,7.03v1.01h-4.82v-.79c0-1.68-.94-2.99-2.81-2.99-1.57,0-2.58.97-2.58,2.47,0,1.76,1.42,2.73,4.6,4.38,3.48,1.91,5.91,3.85,5.91,7.48,0,4.04-2.99,7.55-7.97,7.55Z"/>
            <path class="cls-2" d="M125.64,157.57v-24.91h5.35v24.91h-5.35Z"/>
            <path class="cls-2" d="M143,158.21c-5.12,0-8.19-3.18-8.19-7.63v-10.92c0-4.41,3.07-7.59,8.19-7.59s8.19,3.18,8.19,7.59v10.92c0,4.45-3.03,7.63-8.19,7.63ZM145.8,139.36c0-1.68-1.01-2.81-2.81-2.81s-2.77,1.12-2.77,2.81v11.52c0,1.68,1.01,2.81,2.77,2.81s2.81-1.12,2.81-2.81v-11.52Z"/>
            <path class="cls-2" d="M167.49,157.57l-5.5-9.99-2.13-4.08v14.06h-4.9v-24.91h4.45l5.35,10.21,2.02,4.08v-14.29h4.82v24.91h-4.11Z"/>
          </g>
        </g>
      </g>
    </g>
  </g>
</svg>